<?xml version="1.0" encoding="utf-8"?>
<!-- Generator: Adobe Illustrator 25.2.0, SVG Export Plug-In . SVG Version: 6.00 Build 0)  -->
<svg version="1.1" id="Layer_1" xmlns="http://www.w3.org/2000/svg" xmlns:xlink="http://www.w3.org/1999/xlink" x="0px" y="0px"
	 viewBox="0 0 500 500" style="enable-background:new 0 0 500 500;" xml:space="preserve">
<style type="text/css">
	.st0{fill:#535663;}
</style>
<g>
	<path class="st0" d="M434.8,365.6c-0.7,0.7-1.6,1.5-2.4,2.3l0,0l-1.3,1.1c-1.7,1.5-3.4,2.8-5.3,4.1c-8.8,6.2-18.8,10.2-29.4,11.7
		c-1.4,0.2-2.8,0.4-4.2,0.5c-3.3,0.3-6.6,0.3-10,0.1l-2.6-0.2v-0.1c-8.3-0.9-16.6-3.3-24-7.1l-30.8,30.8
		c12.7,8.6,27.4,14.6,42.5,17.3l0,0c7.1,1.2,14.2,1.8,21.3,1.7c7.1-0.1,14.2-0.9,21.1-2.4c4.6-1,9.2-2.3,13.7-3.8
		c7.6-2.7,14.9-6.2,21.7-10.5c7-4.4,13.5-9.6,19.5-15.5c37.5-37.5,42.7-97.2,12.9-140.5l0,0c-1.2,1.5-2.4,2.9-3.7,4.4
		c-0.3,0.4-0.6,0.7-0.9,1c-1.3,1.4-2.6,2.8-3.9,4.2l-21.8,21.8C460.6,312.5,455.6,344.8,434.8,365.6z"/>
	<path class="st0" d="M365.7,434.7c-20.9,20.9-53.1,25.8-79.2,12.4l0,0l-1.9-1.1c0,0,0,0-0.1,0c-3.9-2.2-7.6-4.7-10.9-7.6
		c-1.4-1.2-2.7-2.4-4-3.7L245.8,411l-30.4-30.4c0,0,0,0.1-0.1,0.1c-0.2,0.3-0.4,0.5-0.7,0.8c-0.1,0.1-0.2,0.2-0.2,0.3
		c-0.2,0.2-0.4,0.5-0.6,0.7c-0.1,0.1-0.2,0.3-0.3,0.4c-0.2,0.2-0.4,0.5-0.7,0.7c-0.1,0.1-0.2,0.3-0.4,0.4c-0.3,0.3-0.6,0.6-0.9,1
		c-0.1,0.1-0.2,0.2-0.2,0.3c-0.4,0.4-0.8,0.9-1.2,1.3c-0.1,0.1-0.2,0.3-0.4,0.4c-0.3,0.3-0.7,0.7-1,1.1c-0.2,0.2-0.3,0.3-0.5,0.5
		c-0.3,0.4-0.7,0.7-1.1,1.1c-0.2,0.2-0.3,0.3-0.5,0.5c-0.5,0.5-1.1,1.1-1.6,1.7c-1.5,1.5-3.1,3-4.6,4.5c-0.2,0.2-0.5,0.4-0.7,0.6
		c-1.5,1.4-3,2.7-4.5,4c-0.3,0.2-0.6,0.5-0.8,0.7c-1.5,1.3-3,2.5-4.5,3.8c-0.2,0.2-0.4,0.3-0.7,0.5c-1.5,1.2-3.1,2.4-4.6,3.5
		c0,0,0,0-0.1,0l30.1,30.1l24.9,24.9c3.8,3.8,7.9,7.3,12.2,10.5c21,15.7,47.1,23.3,73.4,21.5c26.5-1.8,51.5-13.2,70.4-32
		c10.3-10.3,18.3-22.2,23.8-35.4c-0.2,0.1-0.4,0.1-0.6,0.2c-0.7,0.2-1.5,0.4-2.2,0.6c-1.5,0.4-3.1,0.8-4.6,1.1
		c-0.9,0.2-1.7,0.4-2.6,0.5c-1.4,0.3-2.9,0.6-4.4,0.8c-0.9,0.1-1.8,0.3-2.7,0.4c-1.5,0.2-2.9,0.4-4.4,0.5c-0.9,0.1-1.8,0.2-2.7,0.2
		c-1.5,0.1-3.1,0.2-4.6,0.2c-0.8,0-1.6,0.1-2.4,0.1c-1.9,0-3.9,0-5.8-0.1c-0.4,0-0.8,0-1.2,0c-2.4-0.1-4.7-0.3-7-0.6
		c-0.6-0.1-1.3-0.2-1.9-0.3c-1.4-0.2-2.8-0.3-4.2-0.6C367.2,433.2,366.4,434,365.7,434.7z"/>
	<path class="st0" d="M279.2,258.5c-5.2,1.2-10.4,3-15.4,5.2c-2.2,5-4,10.2-5.2,15.4c-3.9,16.6-2.8,34.1,3.4,51.9
		c7,20.1,18.5,35.1,23.1,40.6l29.9-29.9c-4-5.1-12.4-18.2-8.8-33.3l0.4-1.8l1.8-0.4c18.5-4.4,33.8,9,35.5,10.6l0,0
		c0.4,0.3,1.6,1.2,3.5,2.8l0,0c0.3,0.2,0.5,0.5,0.8,0.7c0.1,0.1,0.1,0.1,0.2,0.2c0.2,0.2,0.5,0.4,0.7,0.6c0.1,0.1,0.2,0.2,0.3,0.3
		c0.2,0.2,0.5,0.4,0.7,0.7c0.1,0.1,0.3,0.2,0.4,0.4c0.2,0.2,0.5,0.4,0.7,0.7c0.1,0.1,0.3,0.3,0.5,0.4c0.2,0.2,0.5,0.5,0.8,0.7
		c0.2,0.2,0.3,0.3,0.5,0.5c0.3,0.2,0.5,0.5,0.8,0.8c0.2,0.2,0.3,0.3,0.5,0.5c0.3,0.3,0.6,0.6,0.9,0.9c0.2,0.2,0.3,0.3,0.5,0.5
		c0.5,0.5,1,1,1.5,1.5c7,7,13.4,15,19.5,24.4l1.3,2l-0.2,0.2c3.8,7.4,6.3,15.6,7.1,23.9c0.1,0,0.2,0,0.3,0c0.3,0,0.7,0,1,0
		c0.6,0,1.3,0,1.9,0c0.4,0,0.7,0,1.1,0c0.6,0,1.2-0.1,1.8-0.1c0.4,0,0.8-0.1,1.1-0.1c0.6-0.1,1.2-0.1,1.7-0.2c0.4,0,0.8-0.1,1.2-0.2
		c0.6-0.1,1.1-0.2,1.7-0.3c0.4-0.1,0.8-0.1,1.2-0.2c0.6-0.1,1.1-0.2,1.7-0.3c0.4-0.1,0.8-0.2,1.1-0.3c0.6-0.1,1.1-0.3,1.7-0.4
		c0.4-0.1,0.7-0.2,1.1-0.3c0.6-0.2,1.2-0.4,1.8-0.5c0.3-0.1,0.7-0.2,1-0.3c0.7-0.2,1.3-0.5,2-0.7c0.2-0.1,0.5-0.2,0.7-0.3
		c0.9-0.3,1.8-0.7,2.6-1.1c0.2-0.1,0.4-0.2,0.6-0.3c0.7-0.3,1.3-0.6,2-1c0.3-0.2,0.6-0.3,0.9-0.5c0.5-0.3,1.1-0.6,1.6-0.9
		c0.3-0.2,0.7-0.4,1-0.6c0.5-0.3,1-0.6,1.5-0.9c0.3-0.2,0.7-0.4,1-0.7c0.5-0.3,0.9-0.6,1.4-0.9c0.3-0.2,0.7-0.5,1-0.7
		c0.4-0.3,0.9-0.7,1.3-1c0.3-0.3,0.7-0.5,1-0.8c0.2-0.2,0.4-0.3,0.6-0.5c-3-15.7-9.5-30.7-18.9-43.6l-0.1-0.2
		c-0.6-0.9-1.3-1.8-2-2.7c-4.1-5.5-9-11.3-14.4-16.9c-0.9-1-1.9-1.9-2.9-2.9c-8.2-8.2-13.2-11.8-13.2-11.9l-2.9-2.1l0.2-0.2
		c-5.6-4.7-20.6-16.2-40.6-23.2C313.3,255.7,295.8,254.6,279.2,258.5z"/>
	<path class="st0" d="M368.7,351.9c-0.6-0.9-1.2-1.7-1.8-2.6c-0.9-1.2-1.8-2.4-2.7-3.6c-0.6-0.7-1.1-1.5-1.7-2.2
		c-1-1.3-2-2.5-3.1-3.6c-0.5-0.6-1-1.2-1.5-1.8c-1.6-1.7-3.1-3.4-4.8-5c-0.6-0.6-1.1-1.1-1.7-1.7c-0.2-0.2-0.3-0.3-0.5-0.5
		c-0.4-0.4-0.7-0.7-1.1-1.1c-0.2-0.2-0.4-0.3-0.5-0.5c-0.3-0.3-0.7-0.6-1-0.9c-0.2-0.1-0.3-0.3-0.5-0.4c-0.4-0.3-0.7-0.7-1.1-1
		c-0.1-0.1-0.2-0.2-0.3-0.2c-0.4-0.4-0.8-0.7-1.2-1c-0.1-0.1-0.3-0.2-0.4-0.4c-0.2-0.2-0.5-0.4-0.7-0.6c-0.1-0.1-0.3-0.2-0.4-0.3
		c-0.2-0.2-0.4-0.3-0.6-0.5c-0.1-0.1-0.2-0.2-0.3-0.3c-0.2-0.2-0.4-0.3-0.5-0.4s-0.1-0.1-0.2-0.2l-21,21L285,380.3L254.3,411
		l19.4,19.4c0.9,0.9,1.9,1.9,2.9,2.7c0.3,0.3,0.7,0.6,1,0.8c0.7,0.6,1.4,1.2,2.1,1.7c0.4,0.3,0.8,0.6,1.2,0.9c0.7,0.5,1.4,1,2.1,1.4
		c0.4,0.3,0.9,0.6,1.3,0.9c0.3,0.2,0.7,0.4,1,0.6l30-30l39-39l16-16C369.9,353.7,369.3,352.8,368.7,351.9z"/>
	<path class="st0" d="M434.8,134.3c20.8,20.8,25.8,53.1,12.4,79.2l0,0l-1.1,2l0,0c-2.2,4-4.8,7.7-7.7,11.1c-1.1,1.3-2.3,2.6-3.5,3.9
		l-23.7,23.7l-30.4,30.4c0,0,0,0,0.1,0c0.3,0.2,0.6,0.5,0.9,0.8l0,0c0.3,0.3,0.6,0.5,1,0.8c0.1,0.1,0.2,0.1,0.2,0.2
		c0.3,0.3,0.6,0.5,0.9,0.8c0.1,0.1,0.2,0.2,0.3,0.2c0.4,0.3,0.8,0.7,1.2,1l0.1,0.1c0.4,0.4,0.9,0.8,1.4,1.3c0.1,0.1,0.2,0.2,0.3,0.3
		c0.4,0.3,0.7,0.7,1.1,1.1c0.2,0.1,0.3,0.3,0.5,0.4c0.4,0.4,0.7,0.7,1.1,1.1c0.2,0.2,0.3,0.3,0.5,0.5c0.5,0.5,1.1,1.1,1.7,1.6
		c1.5,1.5,3,3.1,4.5,4.7c0.2,0.2,0.4,0.5,0.6,0.7c1.4,1.5,2.7,3,4,4.5c0.2,0.3,0.5,0.5,0.7,0.8c1.3,1.5,2.6,3,3.8,4.5
		c0.2,0.2,0.3,0.4,0.5,0.6c1.3,1.6,2.5,3.1,3.6,4.7l30.1-30.1l24.9-24.9c3.8-3.8,7.3-7.9,10.5-12.2c32.4-43.5,27.9-105.3-10.5-143.7
		c-10.3-10.3-22.2-18.3-35.4-23.8c0.1,0.2,0.1,0.4,0.2,0.6c0.2,0.8,0.4,1.5,0.6,2.3c0.4,1.5,0.8,3,1.1,4.5c0.2,0.9,0.4,1.8,0.5,2.6
		c0.3,1.4,0.5,2.9,0.8,4.3c0.1,0.9,0.3,1.8,0.4,2.7c0.2,1.4,0.4,2.9,0.5,4.3c0.1,0.9,0.2,1.8,0.2,2.7c0.1,1.5,0.2,3.1,0.2,4.6
		c0,0.8,0.1,1.6,0.1,2.4c0,1.9,0,3.9-0.1,5.8c0,0.4,0,0.8,0,1.3c-0.1,2.4-0.3,4.7-0.6,7c-0.1,0.6-0.2,1.3-0.3,1.9
		c-0.2,1.4-0.3,2.8-0.6,4.2C433.2,132.8,434,133.6,434.8,134.3z"/>
	<path class="st0" d="M134.4,434.7c-0.7-0.7-1.5-1.6-2.3-2.4l0,0L131,431l0,0c-10.2-11.9-15.9-26.6-16.4-42.1
		c-0.1-2.2,0-4.5,0.1-6.7l0.2-2.6h0.1c0.9-8.3,3.3-16.6,7.1-24l-30.8-30.8c-8.6,12.7-14.6,27.4-17.3,42.5l0,0
		c-1.2,7.1-1.8,14.2-1.7,21.3c0.1,3.2,0.3,6.3,0.6,9.5c0.4,3.9,1,7.8,1.8,11.6c1,4.6,2.3,9.2,3.8,13.6c5.5,15.6,14.2,29.5,26,41.2
		C142,502,201.7,507.3,245,477.4l0,0c-1.5-1.2-3-2.4-4.4-3.7c-0.3-0.3-0.7-0.6-1-0.9c-1.4-1.3-2.8-2.6-4.2-3.9l-21.8-21.8
		C187.5,460.5,155.2,455.5,134.4,434.7z"/>
	<path class="st0" d="M352,131.3c-0.9,0.6-1.7,1.2-2.6,1.8c-1.2,0.9-2.4,1.8-3.5,2.7c-0.8,0.6-1.5,1.2-2.3,1.8c-1.2,1-2.4,2-3.6,3.1
		c-0.6,0.5-1.2,1-1.8,1.5c-1.7,1.6-3.4,3.1-5,4.8c-0.6,0.6-1.1,1.1-1.7,1.7c-0.2,0.2-0.3,0.4-0.5,0.5c-0.4,0.4-0.7,0.7-1,1.1
		c-0.2,0.2-0.4,0.4-0.5,0.6c-0.3,0.3-0.6,0.6-0.9,0.9c-0.2,0.2-0.3,0.3-0.5,0.5c-0.3,0.3-0.6,0.7-0.9,1c-0.1,0.1-0.2,0.2-0.3,0.3
		c-0.4,0.4-0.7,0.8-1,1.1c-0.1,0.2-0.3,0.3-0.4,0.5c-0.2,0.2-0.4,0.4-0.5,0.6c-0.1,0.2-0.3,0.3-0.4,0.5s-0.3,0.3-0.4,0.5
		c-0.1,0.1-0.2,0.3-0.3,0.4c-0.1,0.2-0.2,0.3-0.4,0.4c-0.1,0.1-0.2,0.2-0.2,0.3l21,21l36.3,36.3l30.6,30.6l19.4-19.4
		c0.9-0.9,1.9-1.9,2.7-2.9c0.3-0.3,0.6-0.7,0.8-1c0.6-0.7,1.2-1.4,1.7-2.1c0.3-0.4,0.6-0.8,0.9-1.2c0.5-0.7,1-1.4,1.4-2.1
		c0.3-0.4,0.6-0.9,0.9-1.4c0.2-0.3,0.4-0.7,0.6-1l-30-30l-39-39l-16-16C353.8,130.1,352.9,130.7,352,131.3z"/>
	<path class="st0" d="M241.5,279.1c-1.2-5.2-3-10.4-5.2-15.4c-5.1-2.2-10.3-4-15.4-5.2c-16.6-3.9-34.1-2.8-51.9,3.4
		c-20.1,7-35.1,18.5-40.6,23.1l29.9,29.9c5.1-4,18.1-12.4,33.3-8.8l1.8,0.4l0.4,1.8c4.4,18.5-9,33.8-10.5,35.5l0,0c0,0,0,0-0.1,0.1
		c0,0,0,0,0,0.1s-0.1,0.1-0.2,0.2l-0.1,0.1c-0.1,0.1-0.1,0.2-0.2,0.3l-0.1,0.1c-0.1,0.1-0.2,0.2-0.3,0.3c0,0.1-0.1,0.1-0.1,0.2
		c-0.1,0.1-0.2,0.3-0.3,0.4c0,0.1-0.1,0.1-0.1,0.2c-0.2,0.2-0.4,0.4-0.6,0.7c0,0,0,0.1-0.1,0.1c-0.2,0.2-0.4,0.4-0.6,0.7
		c-0.1,0.1-0.2,0.2-0.2,0.3c-0.2,0.2-0.3,0.4-0.5,0.6c-0.1,0.1-0.2,0.2-0.3,0.3c-0.2,0.2-0.3,0.4-0.5,0.6c-0.1,0.1-0.2,0.3-0.4,0.4
		c-0.2,0.2-0.4,0.4-0.6,0.6c-0.1,0.1-0.3,0.3-0.4,0.4c-0.2,0.2-0.4,0.5-0.6,0.7c-0.1,0.2-0.3,0.3-0.5,0.5s-0.4,0.5-0.7,0.7
		c-0.2,0.2-0.3,0.3-0.5,0.5c-0.2,0.3-0.5,0.5-0.8,0.8c-0.2,0.2-0.3,0.3-0.5,0.5c-0.3,0.3-0.6,0.6-0.9,0.9c-0.2,0.2-0.3,0.3-0.5,0.5
		c-0.5,0.5-1,1-1.5,1.5c-7,7-15,13.4-24.4,19.5l-2,1.3l-0.2-0.2c-7.4,3.8-15.6,6.3-23.9,7.1c0,0.1,0,0.2,0,0.2c0,0.4,0,0.8,0,1.1
		c0,0.6,0,1.2,0,1.8c0,0.4,0,0.8,0.1,1.2c0,0.6,0.1,1.1,0.1,1.7c0,0.4,0.1,0.8,0.1,1.2c0.1,0.5,0.1,1.1,0.2,1.6
		c0,0.4,0.1,0.8,0.2,1.2c0.1,0.5,0.2,1.1,0.2,1.6c0.1,0.4,0.1,0.8,0.2,1.2c0.1,0.5,0.2,1.1,0.3,1.6c0.1,0.4,0.2,0.8,0.3,1.2
		c0.1,0.5,0.3,1.1,0.4,1.6c0.1,0.4,0.2,0.8,0.3,1.1c0.2,0.6,0.3,1.1,0.5,1.7c0.1,0.3,0.2,0.7,0.3,1c0.2,0.7,0.5,1.3,0.7,2
		c0.1,0.2,0.2,0.5,0.3,0.7c0.3,0.9,0.7,1.8,1.1,2.6c0.1,0.2,0.2,0.3,0.2,0.5c0.3,0.7,0.6,1.4,1,2.1c0.1,0.3,0.3,0.6,0.5,0.9
		c0.3,0.6,0.6,1.1,0.9,1.7c0.2,0.3,0.4,0.6,0.6,1c0.3,0.5,0.6,1,0.9,1.5c0.2,0.3,0.4,0.7,0.6,1c0.3,0.5,0.6,1,1,1.4
		c0.2,0.3,0.5,0.7,0.7,1c0.3,0.5,0.7,0.9,1,1.4c0.2,0.3,0.5,0.6,0.8,1c0.2,0.2,0.3,0.4,0.5,0.6c15.7-3,30.8-9.6,43.7-18.9l0.1-0.1
		c0.9-0.6,1.8-1.3,2.7-2c5.5-4.1,11.3-9,16.9-14.4c1-0.9,1.9-1.9,2.9-2.9c8.2-8.2,11.8-13.2,11.9-13.2l2.1-2.9l0.2,0.2
		c4.7-5.6,16.2-20.6,23.2-40.6C244.3,313.2,245.4,295.8,241.5,279.1z"/>
	<path class="st0" d="M258.6,220.8c1.2,5.2,3,10.4,5.2,15.4c5,2.2,10.2,4,15.4,5.2c16.6,3.9,34.1,2.8,51.9-3.4
		c20-7,35.1-18.5,40.6-23.2L341.8,185c-5.1,4-18.1,12.4-33.3,8.8l-1.8-0.4l-0.4-1.8c-4.4-18.4,9-33.8,10.5-35.5l0,0c0,0,0,0,0.1-0.1
		c0,0,0,0,0-0.1s0.1-0.1,0.2-0.2l0.1-0.1c0.1-0.1,0.1-0.2,0.2-0.3l0.1-0.1c0.1-0.1,0.2-0.2,0.3-0.3c0-0.1,0.1-0.1,0.1-0.2
		c0.1-0.1,0.2-0.3,0.3-0.4c0-0.1,0.1-0.1,0.1-0.2c0.2-0.2,0.4-0.4,0.6-0.7c0,0,0-0.1,0.1-0.1c0.2-0.2,0.4-0.4,0.6-0.7
		c0.1-0.1,0.2-0.2,0.2-0.3c0.2-0.2,0.3-0.4,0.5-0.6c0.1-0.1,0.2-0.2,0.3-0.3c0.2-0.2,0.3-0.4,0.5-0.6c0.1-0.1,0.2-0.3,0.4-0.4
		c0.2-0.2,0.4-0.4,0.6-0.6c0.1-0.1,0.3-0.3,0.4-0.4c0.2-0.2,0.4-0.5,0.6-0.7c0.1-0.2,0.3-0.3,0.5-0.5s0.4-0.5,0.7-0.7
		c0.2-0.2,0.3-0.3,0.5-0.5c0.2-0.3,0.5-0.5,0.8-0.8c0.2-0.2,0.3-0.3,0.5-0.5c0.3-0.3,0.6-0.6,0.9-0.9c0.2-0.2,0.3-0.3,0.5-0.5
		c0.5-0.5,1-1,1.5-1.5c7.1-7.1,15-13.4,24.4-19.5l2-1.3l0.2,0.2c7.4-3.8,15.6-6.3,23.9-7.1c0-0.1,0-0.2,0-0.2c0-0.4,0-0.8,0-1.2
		c0-0.6,0-1.1,0-1.7c0-0.4,0-0.9-0.1-1.3c0-0.5-0.1-1.1-0.1-1.6c0-0.4-0.1-0.9-0.1-1.3c0-0.5-0.1-1-0.2-1.6
		c-0.1-0.4-0.1-0.9-0.2-1.3c-0.1-0.5-0.2-1-0.2-1.6c-0.1-0.4-0.1-0.9-0.2-1.3c-0.1-0.5-0.2-1-0.3-1.5c-0.1-0.4-0.2-0.8-0.3-1.3
		c-0.1-0.5-0.3-1-0.4-1.6c-0.1-0.4-0.2-0.8-0.3-1.2c-0.2-0.5-0.3-1.1-0.5-1.6c-0.1-0.4-0.2-0.8-0.4-1.1c-0.2-0.6-0.4-1.2-0.6-1.8
		c-0.1-0.3-0.2-0.6-0.3-0.9c-0.3-0.9-0.7-1.7-1.1-2.6c-0.1-0.2-0.2-0.5-0.3-0.7c-0.3-0.6-0.6-1.3-0.9-1.9c-0.2-0.3-0.3-0.7-0.5-1
		c-0.3-0.5-0.5-1-0.8-1.5c-0.2-0.3-0.4-0.7-0.6-1c-0.3-0.5-0.6-1-0.9-1.4c-0.2-0.4-0.4-0.7-0.7-1c-0.3-0.5-0.6-0.9-0.9-1.4
		c-0.2-0.3-0.5-0.7-0.7-1c-0.3-0.4-0.7-0.9-1-1.3c-0.3-0.3-0.5-0.7-0.8-1c-0.2-0.2-0.3-0.4-0.5-0.6C349.7,77.7,335,84,322,93.5
		l-0.2,0.1c-6.3,4.4-13,10-19.6,16.4c-1,0.9-1.9,1.9-2.9,2.8c-8.2,8.2-11.8,13.2-11.9,13.2l-2.1,2.9l-0.2-0.2
		c-4.7,5.6-16.2,20.6-23.2,40.6C255.8,186.7,254.7,204.2,258.6,220.8z"/>
	<path class="st0" d="M365.7,65.2c0.7,0.7,1.5,1.5,2.3,2.4l0,0l1.1,1.3l0,0c9.5,11,15.1,24.5,16.2,38.8c0.3,3.3,0.3,6.6,0.1,10
		l-0.2,2.7h-0.1c-0.9,8.3-3.3,16.5-7.1,24l30.8,30.8c8.7-12.8,14.5-27.1,17.3-42.6l0,0c0.8-4.7,1.4-9.4,1.6-14.2
		c0.1-2.1,0.1-4.1,0.1-6.2c0-0.3,0-0.6,0-0.9c-0.2-9.5-1.5-18.9-4.1-28c-0.6-2.3-1.4-4.5-2.1-6.8c-2.7-7.6-6.2-14.9-10.5-21.8
		c-4.4-7-9.6-13.5-15.5-19.5C358.1-2.1,298.4-7.3,255.1,22.5l0,0c1.5,1.2,3,2.4,4.4,3.7c0.3,0.3,0.7,0.6,1,0.9
		c1.4,1.3,2.8,2.6,4.2,3.9l21.8,21.8C312.6,39.4,344.8,44.4,365.7,65.2z"/>
	<path class="st0" d="M148.1,368.6c0.9-0.6,1.7-1.2,2.6-1.8c1.2-0.9,2.4-1.8,3.5-2.7c0.8-0.6,1.5-1.2,2.3-1.8c1.2-1,2.4-2,3.6-3.1
		c0.6-0.5,1.2-1,1.8-1.5c1.7-1.6,3.4-3.1,5-4.8c0.6-0.6,1.1-1.1,1.7-1.7c0.2-0.2,0.3-0.4,0.5-0.5c0.4-0.4,0.7-0.7,1-1.1
		c0.2-0.2,0.4-0.4,0.5-0.6c0.3-0.3,0.6-0.6,0.9-0.9c0.2-0.2,0.3-0.3,0.5-0.5c0.3-0.3,0.6-0.7,0.9-1c0.1-0.1,0.2-0.2,0.3-0.3
		c0.4-0.4,0.7-0.8,1-1.1c0.1-0.2,0.3-0.3,0.4-0.5c0.2-0.2,0.4-0.4,0.5-0.6s0.3-0.3,0.4-0.5c0.1-0.2,0.3-0.3,0.4-0.5
		c0.1-0.1,0.2-0.3,0.3-0.4c0.1-0.2,0.2-0.3,0.4-0.4c0.1-0.1,0.2-0.2,0.2-0.3l-21-21l-36.3-36.3L89,254.2l-19.4,19.4
		c-0.9,0.9-1.9,1.9-2.7,2.9c-0.3,0.3-0.6,0.7-0.8,1c-0.6,0.7-1.2,1.4-1.7,2.1c-0.3,0.4-0.6,0.8-0.9,1.2c-0.5,0.7-1,1.4-1.4,2.1
		c-0.3,0.4-0.6,0.9-0.9,1.4c-0.2,0.3-0.4,0.7-0.6,1l30,30l39,39l16,16C146.3,369.8,147.2,369.2,148.1,368.6z"/>
	<path class="st0" d="M65.3,365.6c-20.9-20.9-25.8-53.1-12.4-79.2l0,0l1.1-2l0,0c2.3-4.1,5-8,8.1-11.6c1-1.2,2.1-2.3,3.2-3.4
		L89,245.7l30.4-30.4c0,0,0,0-0.1-0.1c-0.3-0.2-0.5-0.4-0.8-0.7c-0.1-0.1-0.2-0.2-0.3-0.3c-0.2-0.2-0.4-0.4-0.7-0.6
		c-0.1-0.1-0.3-0.3-0.4-0.4c-0.2-0.2-0.4-0.4-0.6-0.6c-0.2-0.1-0.3-0.3-0.5-0.4c-0.3-0.2-0.5-0.5-0.8-0.7c-0.1-0.1-0.3-0.2-0.4-0.4
		c-0.4-0.4-0.8-0.8-1.3-1.2c-0.2-0.1-0.3-0.3-0.5-0.4c-0.3-0.3-0.6-0.6-1-0.9c-0.2-0.2-0.4-0.3-0.6-0.5c-0.3-0.3-0.7-0.7-1.1-1
		c-0.2-0.2-0.3-0.3-0.5-0.5c-0.5-0.5-1.1-1.1-1.7-1.6c-1.6-1.6-3.1-3.1-4.5-4.7c-0.2-0.2-0.4-0.5-0.7-0.7c-1.4-1.5-2.7-3-4.1-4.5
		c-0.2-0.3-0.5-0.5-0.7-0.8c-1.3-1.5-2.6-3-3.8-4.5c-0.2-0.2-0.3-0.4-0.5-0.6c-1.2-1.5-2.4-3-3.5-4.5l-0.1-0.1l-30.1,30.1
		l-24.9,24.9c-3.8,3.8-7.3,7.9-10.5,12.2C9,272.8,1.4,298.9,3.2,325.2c1.8,26.5,13.2,51.5,32,70.4c10.3,10.3,22.2,18.2,35.4,23.8
		c-0.1-0.2-0.1-0.4-0.2-0.6c-0.2-0.8-0.4-1.5-0.6-2.3c-0.4-1.5-0.8-3-1.1-4.5c-0.2-0.9-0.4-1.8-0.5-2.7c-0.3-1.4-0.5-2.8-0.8-4.3
		c-0.1-0.9-0.3-1.9-0.4-2.8c-0.2-1.4-0.3-2.9-0.5-4.3c-0.1-0.9-0.2-1.8-0.2-2.8c-0.1-1.5-0.2-3-0.2-4.5c0-0.8-0.1-1.7-0.1-2.5
		c0-1.9,0-3.8,0.1-5.7c0-0.5,0-0.9,0-1.4c0.1-2.3,0.3-4.7,0.6-7c0.1-0.6,0.2-1.3,0.3-1.9c0.2-1.4,0.3-2.8,0.6-4.2
		C66.8,367.1,66,366.4,65.3,365.6z"/>
	<path class="st0" d="M220.9,241.4c5.2-1.2,10.4-3,15.4-5.2c2.2-5.1,4-10.3,5.2-15.4l0,0c3.9-16.6,2.8-34.1-3.4-51.9
		c-7-20.1-18.5-35.1-23.1-40.6l-30,29.9c4,5.1,12.4,18.1,8.8,33.3l-0.4,1.8l-1.8,0.4c-18.5,4.4-33.8-9-35.5-10.5l0,0
		c-0.4-0.3-1.6-1.2-3.5-2.8c0,0,0,0-0.1-0.1c-0.3-0.2-0.5-0.4-0.8-0.7c-0.1-0.1-0.2-0.1-0.2-0.2c-0.2-0.2-0.5-0.4-0.7-0.6
		c-0.1-0.1-0.2-0.2-0.3-0.3c-0.2-0.2-0.5-0.4-0.7-0.6c-0.1-0.1-0.3-0.2-0.4-0.4c-0.2-0.2-0.5-0.4-0.7-0.7c-0.2-0.1-0.3-0.3-0.5-0.4
		c-0.2-0.2-0.5-0.5-0.7-0.7s-0.3-0.3-0.5-0.5c-0.3-0.2-0.5-0.5-0.8-0.8c-0.2-0.2-0.3-0.3-0.5-0.5c-0.3-0.3-0.6-0.6-0.9-0.9
		c-0.2-0.2-0.3-0.3-0.5-0.5c-0.5-0.5-1-1-1.5-1.5c-7-7-13.4-15-19.5-24.4l-1.3-2l0.2-0.2c-3.8-7.4-6.3-15.6-7.1-23.9
		c-0.1,0-0.2,0-0.3,0c-0.4,0-0.7,0-1.1,0c-0.6,0-1.2,0-1.9,0c-0.4,0-0.8,0-1.2,0c-0.6,0-1.2,0.1-1.7,0.1c-0.4,0-0.8,0.1-1.2,0.1
		c-0.6,0.1-1.1,0.1-1.7,0.2c-0.4,0-0.8,0.1-1.2,0.2c-0.5,0.1-1.1,0.2-1.6,0.2c-0.4,0.1-0.8,0.1-1.2,0.2c-0.5,0.1-1.1,0.2-1.6,0.3
		c-0.4,0.1-0.8,0.2-1.2,0.3c-0.5,0.1-1.1,0.3-1.6,0.4c-0.4,0.1-0.8,0.2-1.1,0.3c-0.6,0.2-1.1,0.3-1.7,0.5c-0.3,0.1-0.7,0.2-1,0.3
		c-0.7,0.2-1.3,0.5-2,0.7c-0.2,0.1-0.5,0.2-0.7,0.3c-0.9,0.3-1.8,0.7-2.6,1.1c-0.2,0.1-0.3,0.2-0.5,0.2c-0.7,0.3-1.4,0.6-2.1,1
		c-0.3,0.1-0.6,0.3-0.9,0.5c-0.6,0.3-1.1,0.6-1.6,0.9c-0.3,0.2-0.7,0.4-1,0.6c-0.5,0.3-1,0.6-1.5,0.9c-0.3,0.2-0.7,0.4-1,0.7
		c-0.5,0.3-0.9,0.6-1.4,0.9c-0.3,0.2-0.7,0.5-1,0.7c-0.5,0.3-0.9,0.7-1.3,1c-0.3,0.3-0.7,0.5-1,0.8c-0.2,0.2-0.4,0.3-0.6,0.5
		c3,15.6,9.5,30.6,18.8,43.5l0.2,0.3c0.6,0.9,1.3,1.8,1.9,2.7c4,5.5,8.9,11.2,14.4,16.9c0.9,1,1.9,2,2.9,2.9c1,1,2,2,2.9,2.9
		c6.4,6.2,10.3,9,10.3,9l2.9,2.1l-0.2,0.2c5.6,4.7,20.6,16.2,40.6,23.2C186.8,244.2,204.3,245.3,220.9,241.4z"/>
	<path class="st0" d="M134.4,65.2c20.8-20.8,53.1-25.8,79.2-12.4l0,0l2,1.1c4.1,2.3,8,5,11.6,8.1c1.2,1,2.3,2.1,3.4,3.2l23.7,23.7
		l30.4,30.4c0,0,0,0,0.1-0.1c0.2-0.3,0.5-0.6,0.7-0.9c0.1-0.1,0.1-0.1,0.2-0.2c0.2-0.2,0.4-0.5,0.7-0.8c0.1-0.1,0.2-0.2,0.3-0.4
		c0.2-0.3,0.4-0.5,0.7-0.8c0.1-0.1,0.2-0.3,0.3-0.4c0.3-0.3,0.6-0.7,0.9-1c0.1-0.1,0.1-0.2,0.2-0.2c0.4-0.4,0.8-0.9,1.2-1.3
		c0.1-0.1,0.2-0.3,0.4-0.4c0.3-0.3,0.7-0.7,1-1.1c0.2-0.2,0.3-0.3,0.5-0.5c0.3-0.4,0.7-0.7,1-1.1c0.2-0.2,0.3-0.3,0.5-0.5
		c0.5-0.5,1.1-1.1,1.6-1.7c1.6-1.6,3.1-3.1,4.7-4.5c0.2-0.2,0.5-0.4,0.7-0.7c1.5-1.4,3-2.7,4.5-4c0.3-0.2,0.6-0.5,0.8-0.7
		c1.5-1.3,3-2.6,4.5-3.7c0.2-0.2,0.4-0.3,0.6-0.5c1.5-1.2,3.1-2.4,4.6-3.5c0,0,0,0,0.1-0.1l-30.1-30.1l-24.9-24.9
		c-3.8-3.8-7.9-7.3-12.2-10.5C204.7-7.6,142.9-3.1,104.5,35.4C98.6,41.3,93.4,47.9,89,54.8c-3.2,5.1-5.9,10.4-8.2,15.9
		c0.2-0.1,0.4-0.1,0.6-0.1c0.8-0.2,1.5-0.4,2.3-0.6c1.5-0.4,3-0.8,4.5-1.1c0.9-0.2,1.8-0.4,2.7-0.5c1.4-0.3,2.8-0.5,4.3-0.8
		c0.9-0.1,1.8-0.3,2.8-0.4c1.4-0.2,2.9-0.4,4.3-0.5c0.9-0.1,1.8-0.2,2.7-0.2c1.5-0.1,3.1-0.2,4.6-0.2c0.8,0,1.6-0.1,2.4-0.1
		c1.9,0,3.8,0,5.7,0.1c0.4,0,0.9,0,1.3,0c2.3,0.1,4.7,0.3,7,0.6c0.6,0.1,1.3,0.2,1.9,0.3c1.4,0.2,2.8,0.3,4.2,0.6
		C132.9,66.8,133.6,66,134.4,65.2z"/>
	<path class="st0" d="M131.4,148c0.6,0.9,1.2,1.7,1.8,2.6c0.9,1.2,1.8,2.4,2.7,3.6c0.6,0.7,1.1,1.5,1.7,2.2c1,1.3,2.1,2.5,3.1,3.7
		c0.5,0.6,1,1.2,1.5,1.7c1.6,1.7,3.1,3.4,4.8,5c0.6,0.6,1.1,1.1,1.7,1.7c0.2,0.2,0.3,0.3,0.5,0.5c0.4,0.4,0.7,0.7,1.1,1.1
		c0.2,0.2,0.4,0.3,0.5,0.5c0.3,0.3,0.7,0.6,1,0.9c0.2,0.1,0.3,0.3,0.5,0.4c0.4,0.3,0.7,0.7,1.1,1c0.1,0.1,0.2,0.2,0.3,0.2
		c0.4,0.4,0.8,0.7,1.2,1c0.1,0.1,0.3,0.2,0.4,0.4c0.2,0.2,0.5,0.4,0.7,0.6c0.1,0.1,0.3,0.2,0.4,0.3c0.2,0.2,0.4,0.3,0.6,0.5
		c0.1,0.1,0.2,0.2,0.3,0.3c0.2,0.2,0.4,0.3,0.5,0.4c0.1,0.1,0.1,0.1,0.2,0.2l21-21l36.3-36.3l30.6-30.6l-19.4-19.4
		c-0.9-0.9-1.9-1.9-2.9-2.7c-0.3-0.3-0.7-0.6-1-0.8c-0.7-0.6-1.4-1.2-2.1-1.7c-0.4-0.3-0.8-0.6-1.2-0.9c-0.7-0.5-1.4-1-2.1-1.4
		c-0.4-0.3-0.9-0.6-1.3-0.9c-0.3-0.2-0.7-0.4-1-0.6l-30,30l-39,39l-16,16C130.2,146.2,130.8,147.1,131.4,148z"/>
	<path class="st0" d="M65.3,134.3c0.7-0.7,1.5-1.5,2.4-2.3l0,0l1.3-1.1c1.7-1.5,3.4-2.8,5.3-4.1c10.8-7.6,23.6-11.9,36.9-12.3
		c2.2-0.1,4.5,0,6.7,0.1l2.6,0.2v0.1c8.3,0.9,16.5,3.3,24,7.1l30.8-30.8c-12.7-8.6-27.4-14.6-42.6-17.3l0,0
		c-7.1-1.2-14.2-1.8-21.3-1.7c-7.1,0.1-14.2,0.9-21.1,2.4c-4.6,1-9.2,2.3-13.6,3.8c-7.6,2.7-14.9,6.2-21.7,10.5
		c-7,4.4-13.6,9.6-19.5,15.5C-2,141.9-7.3,201.6,22.6,244.9l0,0c1.2-1.5,2.4-2.9,3.7-4.4c0.3-0.4,0.6-0.7,0.9-1
		c1.3-1.4,2.6-2.8,3.9-4.2l21.8-21.8C39.5,187.4,44.5,155.2,65.3,134.3z"/>
</g>
</svg>
