<?xml version="1.0" encoding="utf-8"?>
<!-- Generator: Adobe Illustrator 25.2.0, SVG Export Plug-In . SVG Version: 6.00 Build 0)  -->
<svg version="1.1" id="Layer_1" xmlns="http://www.w3.org/2000/svg" xmlns:xlink="http://www.w3.org/1999/xlink" x="0px" y="0px"
	 viewBox="0 0 513 65.2" style="enable-background:new 0 0 513 65.2;" xml:space="preserve">
<g>
	<path d="M41.4,1H24.3L0,64.7h15.5l4.1-10.9H43l-4.7-11.9h-15l9.8-27.4l17.6,50.2h15.5L41.4,1z M298.7,64.2V1h13.5v51.8h26.9v11.9
		h-40.4V64.2z M377.4,64.2V1h13.5v51.8h26.9v11.9h-40.4V64.2z M223.6,12.4c11.4,0,20.2,9.3,20.2,20.2s-9.3,20.2-20.2,20.2
		c-11.4,0-20.2-9.3-20.2-20.2S212.2,12.4,223.6,12.4 M223.6,0C205.5,0,191,14.5,191,32.6s14.5,32.6,32.6,32.6s32.6-14.5,32.6-32.6
		S241.7,0,223.6,0z M480.4,12.4c11.4,0,20.2,9.3,20.2,20.2s-9.3,20.2-20.2,20.2c-10.9,0-20.2-9.3-20.2-20.2S469,12.4,480.4,12.4
		 M480.4,0c-18.1,0-32.6,14.5-32.6,32.6s14.5,32.6,32.6,32.6S513,50.7,513,32.6S498.5,0,480.4,0z M135.1,1h-29.5v63.7h13.5V43h16
		c11.4,0,20.2-9.3,20.2-20.7C155.8,10.4,146.5,1,135.1,1L135.1,1z M135.1,30h-16V13.5h16c4.1,0,7.8,4.1,7.8,8.3S139.8,30,135.1,30
		L135.1,30z"/>
</g>
</svg>
